{
  "accessors": [
    {
      "bufferView": 2,
      "componentType": 5126,
      "count": 684,
      "max": [
        4.3250579833984375,
        8.045320510864258,
        1.5821936130523682
      ],
      "min": [
        -4.3250579833984375,
        0.0009365547448396683,
        -1.5821936130523682
      ],
      "type": "VEC3"
    },
    {
      "bufferView": 2,
      "byteOffset": 8208,
      "componentType": 5126,
      "count": 684,
      "max": [
        0.9999578595161438,
        1.0,
        1.0
      ],
      "min": [
        -0.9999750256538391,
        -1.0,
        -1.0
      ],
      "type": "VEC3"
    },
    {
      "bufferView": 1,
      "componentType": 5126,
      "count": 684,
      "max": [
        0.881322979927063,
        0.7819981575012207
      ],
      "min": [
        0.0012732557952404022,
        0.0011704564094543457
      ],
      "type": "VEC2"
    },
    {
      "bufferView": 1,
      "byteOffset": 5472,
      "componentType": 5126,
      "count": 684,
      "max": [
        0.881322979927063,
        0.7819981575012207
      ],
      "min": [
        0.0012732557952404022,
        0.0011704564094543457
      ],
      "type": "VEC2"
    },
    {
      "bufferView": 1,
      "byteOffset": 10944,
      "componentType": 5126,
      "count": 684,
      "max": [
        0.881322979927063,
        0.7819981575012207
      ],
      "min": [
        0.0012732557952404022,
        0.0011704564094543457
      ],
      "type": "VEC2"
    },
    {
      "bufferView": 0,
      "componentType": 5125,
      "count": 3084,
      "type": "SCALAR"
    }
  ],
  "asset": {
    "extras": {
      "author": "andre.arancibia (https://sketchfab.com/andre.arancibia)",
      "license": "CC-BY-4.0 (http://creativecommons.org/licenses/by/4.0/)",
      "source": "https://sketchfab.com/3d-models/v-letter-dac22aa86230472da94a5545a3d997b3",
      "title": "V Letter"
    },
    "generator": "Sketchfab-15.22.0",
    "version": "2.0"
  },
  "bufferViews": [
    {
      "buffer": 0,
      "byteLength": 12336,
      "name": "floatBufferViews",
      "target": 34963
    },
    {
      "buffer": 0,
      "byteLength": 16416,
      "byteOffset": 12336,
      "byteStride": 8,
      "name": "floatBufferViews",
      "target": 34962
    },
    {
      "buffer": 0,
      "byteLength": 16416,
      "byteOffset": 28752,
      "byteStride": 12,
      "name": "floatBufferViews",
      "target": 34962
    }
  ],
  "buffers": [
    {
      "byteLength": 45168,
      "uri": "scene.bin"
    }
  ],
  "extensionsRequired": [
    "KHR_materials_pbrSpecularGlossiness"
  ],
  "extensionsUsed": [
    "KHR_materials_pbrSpecularGlossiness"
  ],
  "images": [
    {
      "uri": "textures/material_diffuse.png"
    },
    {
      "uri": "textures/material_specularGlossiness.png"
    }
  ],
  "materials": [
    {
      "doubleSided": true,
      "extensions": {
        "KHR_materials_pbrSpecularGlossiness": {
          "diffuseFactor": [
            1.0,
            1.0,
            1.0,
            1.0
          ],
          "diffuseTexture": {
            "index": 0
          },
          "glossinessFactor": 1.0,
          "specularFactor": [
            1.0,
            1.0,
            1.0
          ],
          "specularGlossinessTexture": {
            "index": 1
          }
        }
      },
      "name": "material"
    }
  ],
  "meshes": [
    {
      "name": "Object_0",
      "primitives": [
        {
          "attributes": {
            "NORMAL": 1,
            "POSITION": 0,
            "TEXCOORD_0": 2,
            "TEXCOORD_1": 3,
            "TEXCOORD_2": 4
          },
          "indices": 5,
          "material": 0,
          "mode": 4
        }
      ]
    }
  ],
  "nodes": [
    {
      "children": [
        1
      ],
      "matrix": [
        1.0,
        0.0,
        0.0,
        0.0,
        0.0,
        2.220446049250313e-16,
        -1.0,
        0.0,
        0.0,
        1.0,
        2.220446049250313e-16,
        0.0,
        0.0,
        0.0,
        0.0,
        1.0
      ],
      "name": "Sketchfab_model"
    },
    {
      "children": [
        2
      ],
      "name": "root"
    },
    {
      "children": [
        3
      ],
      "matrix": [
        1.0,
        0.0,
        0.0,
        0.0,
        0.0,
        2.220446049250313e-16,
        1.0,
        0.0,
        0.0,
        -1.0,
        2.220446049250313e-16,
        0.0,
        0.0,
        0.0,
        0.0,
        1.0
      ],
      "name": "GLTF_SceneRootNode"
    },
    {
      "children": [
        4
      ],
      "name": "root_0"
    },
    {
      "children": [
        5
      ],
      "matrix": [
        0.05918996408581734,
        0.0,
        0.0,
        0.0,
        0.0,
        0.05918996408581734,
        0.0,
        0.0,
        0.0,
        0.0,
        0.05918996408581734,
        0.0,
        -0.09819170832633972,
        -0.12975619733333588,
        0.21027621626853943,
        1.0
      ],
      "name": "node_id152_1"
    },
    {
      "mesh": 0,
      "name": "Object_5"
    }
  ],
  "samplers": [
    {
      "magFilter": 9729,
      "minFilter": 9987,
      "wrapS": 10497,
      "wrapT": 10497
    }
  ],
  "scene": 0,
  "scenes": [
    {
      "name": "Sketchfab_Scene",
      "nodes": [
        0
      ]
    }
  ],
  "textures": [
    {
      "sampler": 0,
      "source": 0
    },
    {
      "sampler": 0,
      "source": 1
    }
  ]
}
