<svg xmlns="http://www.w3.org/2000/svg" version="1.1" xmlns:xlink="http://www.w3.org/1999/xlink" xmlns:svgjs="http://svgjs.dev/svgjs" width="2000" height="1880" viewBox="0 0 2000 1880"><g transform="matrix(1,0,0,1,-0.5637578783148456,-2.659999999999627)"><svg viewBox="0 0 150 141" data-background-color="#efefef" preserveAspectRatio="xMidYMid meet" height="1880" width="2000" xmlns="http://www.w3.org/2000/svg" xmlns:xlink="http://www.w3.org/1999/xlink"><g id="tight-bounds" transform="matrix(1,0,0,1,0.04228184087361342,0.19949999999997203)"><svg viewBox="0 0 149.91543631825277 140.60052000000002" height="140.60052000000002" width="149.91543631825277"><g><svg viewBox="0 0 149.91543631825277 140.60052000000002" height="140.60052000000002" width="149.91543631825277"><g><svg viewBox="0 0 149.91543631825277 140.60052000000002" height="140.60052000000002" width="149.91543631825277"><g><path d="M0 140.601v-140.601h149.915v140.601z" fill="#d94e28" stroke="transparent" stroke-width="0" rx="0%" data-fill-palette-color="tertiary"></path><path d="M3.283 137.317v-134.034h143.349v134.034z" fill="#efefef" stroke="transparent" stroke-width="0" rx="0%" data-fill-palette-color="quaternary"></path><path d="M9.85 130.751v-120.901h130.216v120.901z" fill="#d94e28" stroke="transparent" stroke-width="0" data-fill-palette-color="tertiary"></path></g><g transform="matrix(1,0,0,1,19.699740000000006,19.69974)" id="textblocktransform"><svg viewBox="0 0 110.51595631825276 101.20104000000002" height="101.20104000000002" width="110.51595631825276" id="textblock"><g><svg viewBox="0 0 110.51595631825276 101.20104000000002" height="101.20104000000002" width="110.51595631825276"><g transform="matrix(1,0,0,1,0,0)"><svg width="110.51595631825276" viewBox="0 -30.57 34.18 31.3" height="101.20104000000002" data-palette-color="#efefef"><path d="M10.25-27.59L10.16-26.9Q14.31-16.6 19.04-6.05L19.04-6.05Q27.93-26.71 27.93-27.98L27.93-27.98Q27.93-28.66 26.95-29.05L26.95-29.05 24.02-29.83 24.02-30.57Q26.32-30.37 29.15-30.37L29.15-30.37Q32.03-30.37 34.18-30.57L34.18-30.57 34.18-29.59Q32.18-29.49 30.96-28.76L30.96-28.76Q30.52-28.47 29.74-27.29L29.74-27.29 29-26.17Q27.69-22.31 23.88-13.16 20.07-4 18.55 0.68L18.55 0.68 16.6 0.73Q14.16-5.22 10.38-13.84 6.59-22.46 5.66-24.8L5.66-24.8Q4.35-28.13 2.73-28.91L2.73-28.91Q1.51-29.49 0-29.83L0-29.83 0-30.57Q2.29-30.37 6.98-30.37L6.98-30.37Q12.01-30.37 14.21-30.57L14.21-30.57 14.21-29.59Q10.89-29.3 10.6-28.76L10.6-28.76Q10.35-28.27 10.25-27.59L10.25-27.59Z" opacity="1" transform="matrix(1,0,0,1,0,0)" fill="#efefef" class="wordmark-text-0" data-fill-palette-color="quaternary" id="text-0"></path></svg></g></svg></g></svg></g></svg></g><g></g></svg></g><defs></defs></svg><rect width="149.91543631825277" height="140.60052000000002" fill="none" stroke="none" visibility="hidden"></rect></g></svg></g></svg>